<svg viewBox="0 0 993 381" version="1.1" xmlns="http://www.w3.org/2000/svg" xmlns:xlink="http://www.w3.org/1999/xlink">

<path d="M146.6,162.4c15,14.9,15,39.1,0,54c-14.9,14.9,-39.1,14.9,-54,0c-14.9,-14.9,-14.9,-39.1,0,-54c14.9,-14.9,39.1,-14.9,54,0Z" class="cfg-node" />
<text x="103" y="206" dx="0">A</text>

<path d="M305.8,162.4c14.9,14.9,14.9,39.1,0,54c-14.9,14.9,-39.1,14.9,-54,0c-14.9,-14.9,-14.9,-39.1,0,-54c14.9,-14.9,39.1,-14.9,54,0Z" class="cfg-node" />
<text x="262" y="206" dx="0">B</text>

<path d="M155.7,169.3C200.5,144.4,245.2,119.5,290,94.6l2.7,-1.5" class="stroke-black" />
<path d="M296.3,105.8L312.5,82.1l-28.7,1.3Z" class="fill-black" />
<path d="M454.4,162.4c15,14.9,15,39.1,0,54c-14.9,14.9,-39.1,14.9,-54,0c-14.9,-14.9,-14.9,-39.1,0,-54c14.9,-14.9,39.1,-14.9,54,0Z" class="stroke-blue" />
<text x="412" y="206" dx="0">D</text>

<path d="M384.5,82.2c44.4,24.8,88.8,49.7,133.2,74.5l2.7,1.5" class="stroke-green" />
<path d="M511.4,167.9l28.7,1.3L524,145.5Z" class="fill-green" />
<path d="M375.5,35c14.9,14.9,14.9,39.1,0,54c-14.9,15,-39.1,15,-54,0c-14.9,-14.9,-14.9,-39.1,0,-54c14.9,-14.9,39.1,-14.9,54,0Z" class="cfg-node" />
<text x="333" y="77" dx="0">C</text>

<path d="M160.9,189.4c17,0,34,0,51,0l3,0" class="stroke-black" />
<path d="M211.9,202.2l25.6,-12.8L211.9,176.5Z" class="fill-black" />
<path d="M320,189.4c13.5,0,27,0,40.5,0l3.1,0" class="stroke-green" />
<path d="M360.5,202.2l25.7,-12.8L360.5,176.5Z" class="fill-green" />
<path d="M468.7,189.4c13.5,0,27,0,40.5,0l3,0" class="stroke-blue" />
<path d="M509.2,202.2l25.7,-12.8L509.2,176.5Z" class="fill-blue" />
<path d="M671.1,292.9c14.9,14.9,14.9,39.1,0,54c-14.9,14.9,-39.1,14.9,-54,0c-15,-14.9,-15,-39.1,0,-54c14.9,-14.9,39.1,-14.9,54,0Z" class="cfg-node" />
<text x="630" y="336" dx="0">F</text>

<path d="M462.8,210.7c41.3,24.9,82.6,49.8,123.9,74.7l2.7,1.5" class="stroke-red" />
<path d="M580.1,296.4l28.6,2.2L593.4,274.4Z" class="fill-red" />
<path d="M900.4,162.4c15,14.9,15,39.1,0,54c-14.9,14.9,-39.1,14.9,-54,0c-14.9,-14.9,-14.9,-39.1,0,-54c14.9,-14.9,39.1,-14.9,54,0Z" class="cfg-node" />
<text x="858" y="206" dx="0">H</text>

<path d="M679.9,299.5c45.1,-25.7,90.2,-51.3,135.4,-77l2.6,-1.5" class="stroke-black" />
<path d="M821.6,233.6l16,-23.8l-28.7,1.5Z" class="fill-black" />
<path d="M603.1,162.4c14.9,14.9,14.9,39.1,0,54c-14.9,14.9,-39.1,14.9,-54,0c-14.9,-14.9,-14.9,-39.1,0,-54c14.9,-14.9,39.1,-14.9,54,0Z" class="stroke-blue" />
<text x="562" y="206" dx="0">E</text>

<path d="M751.8,162.4c14.9,14.9,14.9,39.1,0,54c-14.9,14.9,-39.1,14.9,-54,0c-15,-14.9,-15,-39.1,0,-54c14.9,-14.9,39.1,-14.9,54,0Z" class="cfg-node" />
<text x="708" y="206" dx="0">G</text>

<path d="M617.4,189.4c13.5,0,26.9,0,40.4,0l3.1,0" class="stroke-red" />
<path d="M657.8,202.2l25.7,-12.8L657.8,176.5Z" class="fill-red" />
<path d="M766,189.4c13.5,0,27,0,40.5,0l3.1,0" class="stroke-black" />
<path d="M806.5,202.2l25.7,-12.8L806.5,176.5Z" class="fill-black" />
<path d="M553.8,154.7c-27.3,-34.3,-55.5,-40,-84.5,-17.2l-2.2,2.2" class="stroke-blue" />
<path d="M460.3,128.4L451,155.5l27.3,-8.9Z" class="fill-blue" />
<path d="M8.2,189.7c14.9,0,29.7,-0.1,44.5,-0.1l3.1,0" class="stroke-black" />
<path d="M52.7,202.4L78.4,189.5L52.7,176.7Z" class="fill-black" />
<path d="M914.7,189.7c12.5,0,25,0.1,37.6,0.2l3,0" class="stroke-black" />
<path d="M952.2,202.8l25.7,-12.7l-25.5,-13Z" class="fill-black" />

</svg>
