<svg class="{{ include.svgclass }}" viewBox="0 0 840 381" version="1.1" xmlns="http://www.w3.org/2000/svg" xmlns:xlink="http://www.w3.org/1999/xlink">

<path d="M127.7,2.3l565.2,0c24.1,0,36.3,0,49.3,4.1c14.2,5.2,25.4,16.4,30.6,30.6c4.1,13,4.1,25.3,4.1,49.7l0,208.9c0,24.1,0,36.3,-4.1,49.3c-5.2,14.2,-16.4,25.5,-30.6,30.6c-13,4.2,-25.2,4.2,-49.7,4.2l-564.8,0c-24.1,0,-36.3,0,-49.3,-4.2C64.1,370.4,52.9,359.1,47.8,344.9c-4.2,-13,-4.2,-25.2,-4.2,-49.7l0,-208.8C43.6,62.3,43.6,50,47.8,37C52.9,22.8,64.1,11.6,78.4,6.4c13,-4.1,25.2,-4.1,49.7,-4.1Z" class="stroke-blue" />
<path d="M478,9.9l114,0c16,0,24.1,0,32.8,2.8c9.4,3.4,16.8,10.8,20.3,20.3c2.7,8.6,2.7,16.7,2.7,32.9l0,250.3c0,16,0,24.1,-2.7,32.8c-3.5,9.4,-10.9,16.8,-20.3,20.3c-8.7,2.7,-16.8,2.7,-33,2.7L478,372c-15.9,0,-24.1,0,-32.7,-2.7C435.9,365.8,428.5,358.4,425,349c-2.7,-8.7,-2.7,-16.8,-2.7,-33l0,-250.3c0,-16,0,-24.1,2.7,-32.7c3.5,-9.5,10.9,-16.9,20.3,-20.3c8.6,-2.8,16.8,-2.8,33,-2.8Z" class="stroke-blue" />
<path d="M225.5,16.8l117.8,0c17.4,0,26.3,0,35.6,3c10.3,3.7,18.4,11.8,22.2,22.1c3,9.4,3,18.3,3,36l0,38.2c0,17.4,0,26.3,-3,35.6c-3.8,10.3,-11.9,18.4,-22.2,22.2c-9.3,3,-18.2,3,-35.9,3l-117.5,0c-17.4,0,-26.3,0,-35.7,-3C179.6,170.1,171.4,162,167.7,151.7c-3,-9.3,-3,-18.2,-3,-35.9l0,-38.2c0,-17.4,0,-26.3,3,-35.7c3.7,-10.3,11.9,-18.4,22.1,-22.1c9.4,-3,18.3,-3,36,-3Z" class="stroke-blue" />
<path d="M127.6,9.9l207.9,0c22,0,33.2,0,45.1,3.8c13.1,4.8,23.3,15,28.1,28c3.7,11.9,3.7,23.1,3.7,45.5l0,207.8c0,22.1,0,33.3,-3.7,45.2c-4.8,13,-15,23.3,-28.1,28C368.7,372,357.5,372,335.1,372l-207.5,0c-22.1,0,-33.3,0,-45.2,-3.8c-13,-4.7,-23.2,-15,-28,-28C50.6,328.3,50.6,317.1,50.6,294.7l0,-207.8c0,-22.1,0,-33.3,3.8,-45.2c4.8,-13,15,-23.2,28,-28C94.3,9.9,105.5,9.9,127.9,9.9Z" class="stroke-blue" />

<path d="M123.4,164c14.9,14.9,14.9,39.1,0,54c-14.9,14.9,-39.1,14.9,-54,0c-14.9,-14.9,-14.9,-39.1,0,-54c14.9,-15,39.1,-15,54,0Z" class="stroke-gray fill-white" />
<text x="80" y="207" dx="0">A</text>

<path d="M374.1,103.1c14.9,14.9,14.9,39.1,0,54C359.1,172,335,172,320,157.1c-14.9,-14.9,-14.9,-39.1,0,-54c15,-14.9,39.1,-14.9,54.1,0Z" class="stroke-gray fill-white" />
<text x="331" y="146" dx="0">D</text>

<path d="M248.7,36.3c15,14.9,15,39.1,0,54c-14.9,14.9,-39.1,14.9,-54,0c-14.9,-14.9,-14.9,-39.1,0,-54c14.9,-15,39.1,-15,54,0Z" class="stroke-gray fill-white" />
<text x="206" y="79" dx="0">B</text>

<path d="M248.7,291.7c15,14.9,15,39.1,0,54c-14.9,14.9,-39.1,14.9,-54,0c-14.9,-14.9,-14.9,-39.1,0,-54c14.9,-14.9,39.1,-14.9,54,0Z" class="stroke-gray fill-white" />
<text x="206" y="334" dx="0">C</text>

<path d="M499.4,164c14.9,14.9,14.9,39.1,0,54c-14.9,14.9,-39.1,14.9,-54,0c-14.9,-14.9,-14.9,-39.1,0,-54c14.9,-15,39.1,-15,54,0Z" class="stroke-gray fill-white" />
<text x="458" y="207" dx="0">E</text>

<path d="M624.7,291.7c14.9,14.9,14.9,39.1,0,54c-14.9,14.9,-39.1,14.9,-54,0c-14.9,-14.9,-14.9,-39.1,0,-54c14.9,-14.9,39.1,-14.9,54,0Z" class="stroke-gray fill-white" />
<text x="580" y="334" dx="0">G</text>

<path d="M624.7,36.3c14.9,14.9,14.9,39.1,0,54c-14.9,14.9,-39.1,14.9,-54,0c-14.9,-14.9,-14.9,-39.1,0,-54c14.9,-15,39.1,-15,54,0Z" class="stroke-gray fill-white" />
<text x="585" y="79" dx="0">F</text>

<path d="M750,164c15,14.9,15,39.1,0,54c-14.9,14.9,-39.1,14.9,-54,0c-14.9,-14.9,-14.9,-39.1,0,-54c14.9,-15,39.1,-15,54,0Z" class="stroke-gray fill-white" />
<text x="707" y="207" dx="0">H</text>

<path d="M125.3,161.5c16.5,-16.8,33,-33.6,49.6,-50.5l2.1,-2.2" class="stroke-black" />
<path d="M184,120l8.8,-27.3L165.7,102Z" class="fill-black" />
<path d="M125.3,220.4c16.5,16.9,33,33.7,49.6,50.5l2.1,2.2" class="stroke-black" />
<path d="M165.7,279.9l27.1,9.3L184,261.9Z" class="fill-black" />
<path d="M258.1,82.7C268.1,88,278,93.3,288,98.6l2.7,1.4" class="stroke-black" />
<path d="M282,109.9l28.6,0.8L294,87.3Z" class="fill-black" />
<path d="M258.5,300c51.4,-26.2,102.8,-52.4,154.2,-78.6l2.8,-1.4" class="stroke-black" />
<path d="M418.6,232.8l17,-23.1l-28.7,0.2Z" class="fill-black" />

<g class="hide-for-endless-loop">
<path d="M384.2,148.1c9.3,4.6,18.6,9.1,28,13.6l2.7,1.4" class="stroke-black" />
<path d="M406.6,173.3l28.7,-0.4L417.8,150.2Z" class="fill-black" />
</g>

<path d="M626.6,92.7c16.5,16.8,33,33.7,49.6,50.5l2.1,2.2" class="stroke-black" />
<path d="M667,152.2l27.1,9.3l-8.8,-27.3Z" class="fill-black" />
<path d="M501.3,220.4c16.5,16.9,33,33.7,49.5,50.5l2.2,2.2" class="stroke-black" />
<path d="M541.7,279.9l27.1,9.3L560,261.9Z" class="fill-black" />
<path d="M626.6,289.2c16.5,-16.8,33,-33.6,49.6,-50.5l2.1,-2.1" class="stroke-black" />
<path d="M685.3,247.7l8.8,-27.3L667,229.7Z" class="fill-black" />
<path d="M501.3,161.5c16.5,-16.8,33,-33.6,49.5,-50.5l2.2,-2.2" class="stroke-black" />
<path d="M560,120l8.8,-27.3L541.7,102Z" class="fill-black" />
<path d="M352.6,89.2C354.7,37.8,331.2,19.8,282.3,35.1l-2.8,1.1" class="stroke-black" />
<path d="M277.7,23.1L258.4,44.3L286.9,47Z" class="fill-black" />
<path d="M764.3,190.7c16.2,-0.2,32.4,-0.3,48.6,-0.4l3.1,0" class="stroke-black" />
<path d="M813,203.1l25.6,-13L812.8,177.5Z" class="fill-black" />
<path d="M1.7,191.1c9.3,0,18.5,0,27.8,-0.1l3,0" class="stroke-black" />
<path d="M29.5,203.9L55.2,191L29.5,178.2Z" class="fill-black" />

</svg>
