<svg viewBox="0 0 916 381" version="1.1" xmlns="http://www.w3.org/2000/svg" xmlns:xlink="http://www.w3.org/1999/xlink">

<path d="M124.8,164c14.9,14.9,14.9,39.1,0,54c-14.9,14.9,-39.1,14.9,-54,0c-14.9,-14.9,-14.9,-39.1,0,-54c14.9,-15,39.1,-15,54,0Z" class="cfg-node" />
<text x="82" y="207" dx="0">A</text>

<path d="M312.7,164c14.9,14.9,14.9,39.1,0,54c-14.9,14.9,-39.1,14.9,-54,0c-14.9,-14.9,-14.9,-39.1,0,-54c14.9,-15,39.1,-15,54,0Z" class="cfg-node" />
<text x="270" y="207" dx="0">D</text>

<path d="M218.7,257.2c15,14.9,15,39.1,0,54c-14.9,14.9,-39.1,14.9,-54,0c-14.9,-14.9,-14.9,-39.1,0,-54c14.9,-15,39.1,-15,54,0Z" class="cfg-node" />
<text x="175" y="300" dx="0">C</text>

<path d="M218.7,70.8c15,14.9,15,39.1,0,54c-14.9,14.9,-39.1,14.9,-54,0c-14.9,-14.9,-14.9,-39.1,0,-54c14.9,-14.9,39.1,-14.9,54,0Z" class="cfg-node" />
<text x="175" y="114" dx="0">B</text>

<path d="M658,210.6c14.9,14.9,14.9,39.1,0,54c-14.9,14.9,-39.1,14.9,-54,0c-15,-14.9,-15,-39.1,0,-54c14.9,-15,39.1,-15,54,0Z" class="cfg-node" />
<text x="623" y="253" dx="0">f</text>

<path d="M845.9,210.6c14.9,14.9,14.9,39.1,0,54c-14.9,14.9,-39.1,14.9,-54,0c-14.9,-14.9,-14.9,-39.1,0,-54c14.9,-15,39.1,-15,54,0Z" class="cfg-node" />
<text x="803" y="253" dx="0">D</text>

<path d="M751.9,117.4c15,14.9,15,39.1,0,54c-14.9,14.9,-39.1,14.9,-54,0c-14.9,-14.9,-14.9,-39.1,0,-54c14.9,-14.9,39.1,-14.9,54,0Z" class="cfg-node" />
<text x="708" y="160" dx="0">C</text>

<path d="M470.1,210.6c14.9,14.9,14.9,39.1,0,54c-15,14.9,-39.1,14.9,-54.1,0c-14.9,-14.9,-14.9,-39.1,0,-54c15,-15,39.1,-15,54.1,0Z" class="cfg-node" />
<text x="427" y="253" dx="0">A</text>

<path d="M564,117.4c14.9,14.9,14.9,39.1,0,54c-14.9,14.9,-39.1,14.9,-54,0c-14.9,-14.9,-14.9,-39.1,0,-54c14.9,-14.9,39.1,-14.9,54,0Z" class="cfg-node" />
<text x="520" y="160" dx="0">B</text>

<path d="M127.1,161.9c5.7,-5.7,11.4,-11.3,17.1,-17l2.2,-2.1" class="stroke-black" />
<path d="M153.3,154l9.1,-27.2l-27.2,9Z" class="g4_1" />
<path d="M221,255.1c5.7,-5.7,11.5,-11.3,17.2,-17l2.2,-2.2" class="stroke-black" />
<path d="M247.2,247.2L256.4,220l-27.3,9Z" class="g4_1" />
<path d="M221,126.8c5.7,5.7,11.5,11.4,17.2,17l2.2,2.2" class="stroke-black" />
<path d="M229.1,153l27.3,8.9l-9.2,-27.2Z" class="g4_1" />
<path d="M127.1,220c5.7,5.7,11.4,11.4,17.1,17l2.2,2.2" class="stroke-black" />
<path d="M135.2,246.2l27.2,8.9l-9.1,-27.2Z" class="g4_1" />
<path d="M472.3,208.5c5.8,-5.7,11.5,-11.3,17.2,-17l2.2,-2.2" class="stroke-black" />
<path d="M498.5,200.6l9.2,-27.2l-27.2,9Z" class="g4_1" />
<path d="M486.7,237.6c25,0,50,0,75,0l3.1,0" class="stroke-black" />
<path d="M561.7,250.4l25.7,-12.8L561.7,224.7Z" class="g4_1" />
<path d="M674.6,237.6c25,0,50,0,75,0l3.1,0" class="stroke-black" />
<path d="M749.6,250.4l25.7,-12.8L749.6,224.7Z" class="g4_1" />
<path d="M566.3,173.4c5.7,5.7,11.4,11.4,17.2,17l2.1,2.2" class="stroke-black" />
<path d="M574.4,199.6l27.3,8.9l-9.2,-27.2Z" class="g4_1" />
<path d="M754.2,173.4c5.7,5.7,11.5,11.4,17.2,17l2.1,2.2" class="stroke-black" />
<path d="M762.3,199.6l27.3,8.9l-9.2,-27.2Z" class="g4_1" />
<path d="M660.3,208.5c5.7,-5.7,11.4,-11.3,17.1,-17l2.2,-2.2" class="stroke-black" />
<path d="M686.5,200.6l9.1,-27.2l-27.2,9Z" class="g4_1" />

</svg>
