<svg viewBox="0 0 763 305" version="1.1" xmlns="http://www.w3.org/2000/svg" xmlns:xlink="http://www.w3.org/1999/xlink">

<path d="M95.1,193.7c14.9,14.9,14.9,39.1,0,54c-14.9,15,-39.1,15,-54,0c-15,-14.9,-15,-39.1,0,-54c14.9,-14.9,39.1,-14.9,54,0Z" class="cfg-node" />
<text x="51" y="236" dx="0">B</text>

<path d="M95.1,57.8c14.9,14.9,14.9,39.1,0,54c-14.9,14.9,-39.1,14.9,-54,0c-15,-14.9,-15,-39.1,0,-54c14.9,-14.9,39.1,-14.9,54,0Z" class="cfg-node" />
<text x="51" y="100" dx="0">A</text>

<path d="M225.7,193.7c14.9,14.9,14.9,39.1,0,54c-14.9,15,-39.1,15,-54,0c-14.9,-14.9,-14.9,-39.1,0,-54c14.9,-14.9,39.1,-14.9,54,0Z" class="cfg-node" />
<text x="183" y="236" dx="0">D</text>

<path d="M225.7,57.8c14.9,14.9,14.9,39.1,0,54c-14.9,14.9,-39.1,14.9,-54,0c-14.9,-14.9,-14.9,-39.1,0,-54c14.9,-14.9,39.1,-14.9,54,0Z" class="cfg-node" />
<text x="183" y="100" dx="0">C</text>

<path d="M44.4,187C38,172.8,35.8,158.4,37.9,143.8l0.9,-2.9" class="stroke-black" />
<path d="M50.2,147.5L45.3,119.2L25.6,140.1Z" class="fill-black" />
<path d="M88.2,120.8c5,13.4,7.1,26.5,6.3,39.4l-0.6,3" class="stroke-black" />
<path d="M81.9,157.5l7.3,27.8l17.9,-22.5Z" class="fill-black" />
<path d="M600.4,171.8c11.6,6,23.1,12,34.7,18l2.7,1.5" class="stroke-black" />
<path d="M629.1,201.2l28.7,0.5L641,178.5Z" class="fill-black" />
<path d="M109.3,220.7c7.5,0,15,0,22.5,0l3,0" class="stroke-black" />
<path d="M131.8,233.6l25.6,-12.9L131.8,207.9Z" class="fill-black" />
<path d="M460.2,193.7c14.9,14.9,14.9,39.1,0,54c-14.9,15,-39.1,15,-54,0c-14.9,-14.9,-14.9,-39.1,0,-54c14.9,-14.9,39.1,-14.9,54,0Z" class="cfg-node" />
<text x="417" y="236" dx="0">A</text>

<path d="M460.2,57.8c14.9,14.9,14.9,39.1,0,54c-14.9,14.9,-39.1,14.9,-54,0c-14.9,-14.9,-14.9,-39.1,0,-54c14.9,-14.9,39.1,-14.9,54,0Z" class="cfg-node" />
<text x="417" y="100" dx="0">A</text>

<path d="M590.8,125.8c14.9,14.9,14.9,39.1,0,54c-14.9,14.9,-39.1,14.9,-54,0c-14.9,-14.9,-14.9,-39.1,0,-54c14.9,-14.9,39.1,-14.9,54,0Z" class="cfg-node" />
<text x="548" y="169" dx="0">Φ</text>

<path d="M409.5,187C403.1,172.8,401,158.4,403,143.8l0.9,-2.9" class="stroke-black" />
<path d="M415.3,147.5l-4.9,-28.3l-19.6,20.9Z" class="fill-black" />
<path d="M453.3,120.8c5,13.4,7.1,26.5,6.3,39.4l-0.6,3" class="stroke-black" />
<path d="M447.1,157.5l7.2,27.8l17.9,-22.5Z" class="fill-black" />
<path d="M469.8,103.9c11.6,6,23.1,12,34.6,18l2.8,1.4" class="stroke-black" />
<path d="M498.5,133.3l28.7,0.4L510.4,110.5Z" class="fill-black" />
<path d="M469.8,201.7c11.6,-6,23.1,-12,34.6,-18l2.8,-1.4" class="stroke-black" />
<path d="M510.4,195.1l16.8,-23.3l-28.7,0.5Z" class="fill-black" />
<path d="M721.4,193.7c15,14.9,15,39.1,0,54c-14.9,15,-39.1,15,-54,0c-14.9,-14.9,-14.9,-39.1,0,-54c14.9,-14.9,39.1,-14.9,54,0Z" class="cfg-node" />
<text x="678" y="236" dx="0">D</text>

<path d="M721.4,57.8c15,14.9,15,39.1,0,54c-14.9,14.9,-39.1,14.9,-54,0c-14.9,-14.9,-14.9,-39.1,0,-54c14.9,-14.9,39.1,-14.9,54,0Z" class="cfg-node" />
<text x="678" y="100" dx="0">C</text>

<path d="M600.4,133.7c11.6,-6,23.1,-12,34.7,-18l2.7,-1.4" class="stroke-black" />
<path d="M641,127.1l16.8,-23.2l-28.7,0.4Z" class="fill-black" />
<path d="M109.3,84.8c7.5,0,15,0,22.5,0l3,0" class="stroke-black" />
<path d="M131.8,97.7L157.4,84.8L131.8,72Z" class="fill-black" />

</svg>
