<svg class="{{ include.svgclass }}" x="0" y="0" width="673" height="150" viewBox="0 0 673 260" version="1.1" xmlns="http://www.w3.org/2000/svg" xmlns:xlink="http://www.w3.org/1999/xlink">
<defs>
<clipPath id="c0_1"><path d="M126.5,59.5l0,-59l120,0l0,59Z" /></clipPath>
<clipPath id="c1_1"><path d="M1.5,224.5l0,-178l179,0l0,178Z" /></clipPath>
<clipPath id="c2_1"><path d="M126.5,250.5l0,-36l110,0l0,36Z" /></clipPath>
</defs>
<path d="M297.9,37.2c16.3,16.3,16.3,42.7,0,59c-16.3,16.3,-42.7,16.3,-59,0c-16.3,-16.3,-16.3,-42.7,0,-59c16.3,-16.3,42.7,-16.3,59,0Z" class="cfg-node" />
<text x="253" y="82" dx="0">A</text>

<path d="M297.9,175.2c16.3,16.3,16.3,42.7,0,59c-16.3,16.3,-42.7,16.3,-59,0c-16.3,-16.3,-16.3,-42.7,0,-59c16.3,-16.3,42.7,-16.3,59,0Z" class="cfg-node" />
<text x="253" y="219" dx="0">B</text>

<path d="M566.5,37.2c16.3,16.3,16.3,42.7,0,59c-16.3,16.3,-42.7,16.3,-59,0c-16.3,-16.3,-16.3,-42.7,0,-59c16.3,-16.3,42.7,-16.3,59,0Z" class="cfg-node" />
<text x="522" y="82" dx="0">C</text>

<path d="M566.5,175.2c16.3,16.3,16.3,42.7,0,59c-16.3,16.3,-42.7,16.3,-59,0c-16.3,-16.3,-16.3,-42.7,0,-59c16.3,-16.3,42.7,-16.3,59,0Z" class="cfg-node" />
<text x="522" y="221" dx="0">D</text>

<path d="M307.6,86.9c12.8,6.5,25.5,13,38.2,19.6l2.1,1.1" class="stroke-black" />
<path d="M341.3,115.3l22.2,0.3L350.4,97.7Z" class="g4_1" />
<path d="M581.1,66.6c21.4,0,42.8,-0.1,64.2,-0.2l2.4,0" class="stroke-black" />
<path d="M645.4,76.4l19.8,-10L645.3,56.5Z" class="g4_1" />
<path d="M581.1,204.7c23.5,0,46.9,0,70.4,0l2.3,0" class="stroke-black" />
<path d="M651.5,214.6l19.8,-9.9l-19.8,-10Z" class="g4_1" />
<path d="M347.9,163.8l-2.1,1.1c-12.7,6.5,-25.4,13.1,-38.2,19.6" class="stroke-black" />
<path d="M350.4,173.7l13.1,-17.9l-22.2,0.3Z" class="g4_1" />
<path d="M172.3,104.2c12.1,-4.8,24.3,-9.5,36.5,-14.3L211,89.1" class="stroke-black" />
<path d="M212.4,99.2L227.3,82.7l-22.1,-2Z" class="g4_1" />
<path d="M172.3,167.2c12.1,4.8,24.3,9.5,36.5,14.3l2.2,0.8" class="stroke-black" />
<path d="M205.2,190.7l22.1,-2L212.4,172.2Z" class="g4_1" />
<g clip-path="url(#c0_1)">
<path d="M241.6,31.7C204.9,-6.7,170.3,-3.8,137.7,40.7l-1.3,2" class="stroke-black translucid" />
</g>
<path d="M129.4,35.2l-0.9,19.3l17.4,-8.3m-8.2,-5.5l-9.2,13.8" class="stroke-black translucid" />
<g clip-path="url(#c1_1)">
<path d="M151.1,76c33,32.9,33,86.4,0,119.4c-33,33,-86.5,33,-119.5,0C-1.3,162.4,-1.3,108.9,31.6,76c33,-33,86.5,-33,119.5,0Z" class="cfg-node translucid" />
</g>
<text x="31" y="149" dx="0,0,0,0,0,0" class="translucid">(loop)</text>

<g clip-path="url(#c2_1)">
<path d="M233.9,232.1c-33.8,20.7,-63.9,19,-90.2,-5l-1.6,-1.8" class="stroke-black translucid" />
</g>
<path d="M151,220.3l-18.5,-5.4l3.9,18.9m7.3,-6.7L132.5,214.9" class="stroke-black translucid" />
<path d="M432.2,106.2c16.3,16.3,16.3,42.7,0,59c-16.3,16.3,-42.7,16.3,-59,0c-16.3,-16.3,-16.3,-42.7,0,-59c16.3,-16.3,42.7,-16.3,59,0Z" class="cfg-node" />
<text x="388" y="151" dx="0">Φ</text>

<path d="M441.9,155.8c12.8,6.6,25.5,13.1,38.2,19.7l2.1,1" class="stroke-black" />
<path d="M475.6,184.3l22.2,0.2L484.7,166.6Z" class="g4_1" />
<path d="M441.9,115.6c12.8,-6.6,25.5,-13.1,38.2,-19.7l2.1,-1" class="stroke-black" />
<path d="M484.7,104.8L497.8,86.9l-22.2,0.2Z" class="g4_1" />

</svg>
