<svg viewBox="0 0 2368 458" version="1.1" xmlns="http://www.w3.org/2000/svg" xmlns:xlink="http://www.w3.org/1999/xlink">

<path d="M147.2,338.7c14.9,15,14.9,39.1,0,54.1c-14.9,14.9,-39.1,14.9,-54,0c-15,-15,-15,-39.1,0,-54.1c14.9,-14.9,39.1,-14.9,54,0Z" class="cfg-node" />
<text x="105" y="381" dx="0">A</text>

<path d="M413.1,338.7c15,15,15,39.1,0,54.1c-14.9,14.9,-39.1,14.9,-54,0c-14.9,-15,-14.9,-39.1,0,-54.1c14.9,-14.9,39.1,-14.9,54,0Z" class="cfg-node" />
<text x="371" y="381" dx="0">C</text>

<path d="M280.2,247.7c14.9,14.9,14.9,39.1,0,54c-15,14.9,-39.1,14.9,-54.1,0c-14.9,-14.9,-14.9,-39.1,0,-54c15,-14.9,39.1,-14.9,54.1,0Z" class="cfg-node" />
<text x="238" y="291" dx="0">B</text>

<path d="M154.2,342.4c14.6,-9.9,29.2,-19.9,43.7,-29.9l2.6,-1.7" class="stroke-black" />
<path d="M205.2,323.1L219.1,298l-28.4,3.9Z" class="fill-black" />
<path d="M287.2,298c14.6,10,29.1,20,43.7,29.9l2.5,1.8" class="stroke-black" />
<path d="M323.7,338.5l28.4,3.9l-13.9,-25Z" class="fill-black" />
<path d="M161.4,365.8c52.6,0,105.2,0,157.8,0l3.1,0" class="stroke-black" />
<path d="M319.2,378.6l25.7,-12.8L319.2,352.9Z" class="fill-black" />
<path d="M420.2,342.4c14.5,-9.9,29.1,-19.9,43.7,-29.9l2.5,-1.7" class="stroke-black" />
<path d="M471.1,323.1l14,-25.1l-28.5,3.9Z" class="fill-black" />
<path d="M546.1,247.7c14.9,14.9,14.9,39.1,0,54c-14.9,14.9,-39.1,14.9,-54,0c-14.9,-14.9,-14.9,-39.1,0,-54c14.9,-14.9,39.1,-14.9,54,0Z" class="cfg-node" />
<text x="504" y="291" dx="0">D</text>

<path d="M679.1,156.6c14.9,14.9,14.9,39.1,0,54c-14.9,15,-39.1,15,-54,0c-14.9,-14.9,-14.9,-39.1,0,-54c14.9,-14.9,39.1,-14.9,54,0Z" class="cfg-node" />
<text x="637" y="200" dx="0">E</text>

<path d="M812.1,247.7c14.9,14.9,14.9,39.1,0,54c-14.9,14.9,-39.1,14.9,-54,0c-14.9,-14.9,-14.9,-39.1,0,-54c14.9,-14.9,39.1,-14.9,54,0Z" class="cfg-node" />
<text x="771" y="290" dx="0">F</text>

<path d="M553.2,251.4c14.5,-10,29.1,-20,43.7,-29.9l2.5,-1.8" class="stroke-black" />
<path d="M604.1,232l14,-25.1l-28.5,4Z" class="fill-black" />
<path d="M9.4,364.6c14.6,0.1,29.2,0.3,43.9,0.4l3,0.1" class="stroke-black" />
<path d="M53.1,377.9L78.9,365.3L53.4,352.2Z" class="fill-black" />
<path d="M560.4,274.7c52.6,0,105.2,0,157.8,0l3,0" class="stroke-black" />
<path d="M718.2,287.5l25.6,-12.8L718.2,261.9Z" class="fill-black" />
<path d="M945.1,156.6c14.9,14.9,14.9,39.1,0,54c-14.9,15,-39.1,15,-54,0c-15,-14.9,-15,-39.1,0,-54c14.9,-14.9,39.1,-14.9,54,0Z" class="cfg-node" />
<text x="901" y="200" dx="0">G</text>

<path d="M819.1,251.4c14.6,-10,29.2,-20,43.7,-29.9l2.6,-1.8" class="stroke-black" />
<path d="M870.1,232L884,206.9l-28.4,4Z" class="fill-black" />
<path d="M1211,156.6c15,14.9,15,39.1,0,54c-14.9,15,-39.1,15,-54,0c-14.9,-14.9,-14.9,-39.1,0,-54c14.9,-14.9,39.1,-14.9,54,0Z" class="cfg-node" />
<text x="1177" y="198" dx="0">I</text>

<path d="M1078.1,65.6c14.9,14.9,14.9,39.1,0,54c-15,14.9,-39.1,14.9,-54.1,0c-14.9,-14.9,-14.9,-39.1,0,-54c15,-14.9,39.1,-14.9,54.1,0Z" class="cfg-node" />
<text x="1035" y="108" dx="0">H</text>

<path d="M952.1,160.3c14.6,-9.9,29.1,-19.9,43.7,-29.9l2.5,-1.7" class="stroke-black" />
<path d="M1003.1,141L1017,115.9l-28.4,3.9Z" class="fill-black" />
<path d="M1085.1,115.9c14.6,10,29.1,19.9,43.7,29.9l2.5,1.8" class="stroke-black" />
<path d="M1121.6,156.4l28.4,3.9l-13.9,-25.1Z" class="fill-black" />
<path d="M959.3,183.6c52.6,0,105.2,0,157.8,0l3.1,0" class="stroke-black" />
<path d="M1117.1,196.5l25.7,-12.9l-25.7,-12.8Z" class="fill-black" />
<path d="M1344,65.6c14.9,14.9,14.9,39.1,0,54c-14.9,14.9,-39.1,14.9,-54,0c-14.9,-14.9,-14.9,-39.1,0,-54c14.9,-14.9,39.1,-14.9,54,0Z" class="cfg-node" />
<text x="1304" y="108" dx="0">J</text>

<path d="M1477,156.6c14.9,14.9,14.9,39.1,0,54c-14.9,15,-39.1,15,-54,0c-14.9,-14.9,-14.9,-39.1,0,-54c14.9,-14.9,39.1,-14.9,54,0Z" class="cfg-node" />
<text x="1434" y="200" dx="0">K</text>

<path d="M1218.1,160.3c14.5,-9.9,29.1,-19.9,43.7,-29.9l2.5,-1.7" class="stroke-black" />
<path d="M1269,141l14,-25.1l-28.5,3.9Z" class="fill-black" />
<path d="M1351.1,115.9c14.5,10,29.1,19.9,43.7,29.9l2.5,1.8" class="stroke-black" />
<path d="M1387.5,156.4l28.4,3.9L1402,135.2Z" class="fill-black" />
<path d="M1225.3,183.6c52.6,0,105.2,0,157.8,0l3,0" class="stroke-black" />
<path d="M1383.1,196.5l25.6,-12.9l-25.6,-12.8Z" class="fill-black" />
<path d="M1610,247.7c14.9,14.9,14.9,39.1,0,54c-14.9,14.9,-39.1,14.9,-54,0c-14.9,-14.9,-14.9,-39.1,0,-54c14.9,-14.9,39.1,-14.9,54,0Z" class="cfg-node" />
<text x="1570" y="290" dx="0">L</text>

<path d="M826.3,274.7c229.9,0,459.9,0,689.8,0l3,0" class="stroke-black" />
<path d="M1516.1,287.5l25.6,-12.8l-25.6,-12.8Z" class="fill-black" />
<path d="M1484,206.9c14.6,10,29.2,20,43.7,30l2.6,1.7" class="stroke-black" />
<path d="M1520.5,247.5l28.4,3.9L1535,226.3Z" class="fill-black" />
<path d="M1543.1,285.4c-303.9,78.2,-623.5,79.8,-958.9,4.8l-3,-0.7" class="stroke-black" />
<path d="M587.1,277.7l-27.9,6.7l22.2,18.3Z" class="fill-black" />
<path d="M1743,247.7c14.9,14.9,14.9,39.1,0,54c-15,14.9,-39.1,14.9,-54.1,0c-14.9,-14.9,-14.9,-39.1,0,-54c15,-14.9,39.1,-14.9,54.1,0Z" class="cfg-node" />
<text x="1698" y="290" dx="0">M</text>

<path d="M1875.9,156.6c15,14.9,15,39.1,0,54c-14.9,15,-39.1,15,-54,0c-14.9,-14.9,-14.9,-39.1,0,-54c14.9,-14.9,39.1,-14.9,54,0Z" class="cfg-node" />
<text x="1833" y="200" dx="0">N</text>

<path d="M2008.9,247.7c14.9,14.9,14.9,39.1,0,54c-14.9,14.9,-39.1,14.9,-54,0c-14.9,-14.9,-14.9,-39.1,0,-54c14.9,-14.9,39.1,-14.9,54,0Z" class="cfg-node" />
<text x="1964" y="290" dx="0">O</text>

<path d="M1624.2,274.7c8.3,0,16.6,0,24.8,0l3.1,0" class="stroke-black" />
<path d="M1649,287.5l25.7,-12.8L1649,261.9Z" class="fill-black" />
<path d="M1750,251.4c14.6,-10,29.1,-20,43.7,-29.9l2.5,-1.8" class="stroke-black" />
<path d="M1801,232l13.9,-25.1l-28.4,4Z" class="fill-black" />
<path d="M1883,206.9c14.6,10,29.1,20,43.7,30l2.5,1.7" class="stroke-black" />
<path d="M1919.4,247.5l28.5,3.9L1934,226.3Z" class="fill-black" />
<path d="M2141.9,338.7c14.9,15,14.9,39.1,0,54.1c-14.9,14.9,-39.1,14.9,-54,0c-14.9,-15,-14.9,-39.1,0,-54.1c14.9,-14.9,39.1,-14.9,54,0Z" class="cfg-node" />
<text x="2100" y="381" dx="0">P</text>

<path d="M2274.9,338.7c14.9,15,14.9,39.1,0,54.1c-14.9,14.9,-39.1,14.9,-54,0c-14.9,-15,-14.9,-39.1,0,-54.1c14.9,-14.9,39.1,-14.9,54,0Z" class="cfg-node" />
<text x="2230" y="381" dx="0">Q</text>

<path d="M2016,298c14.5,10,29.1,20,43.7,29.9l2.5,1.8" class="stroke-black" />
<path d="M2052.4,338.5l28.5,3.9l-14,-25Z" class="fill-black" />
<path d="M2156.2,365.8c8.2,0,16.5,0,24.8,0l3,0" class="stroke-black" />
<path d="M2181,378.6l25.6,-12.8L2181,352.9Z" class="fill-black" />
<path d="M427.4,365.8c540.2,0,1080.4,0,1620.6,0l3,0" class="stroke-black" />
<path d="M2048,378.6l25.7,-12.8L2048,352.9Z" class="fill-black" />
<path d="M686.1,206.9c14.6,10,29.2,20,43.8,30l2.5,1.7" class="stroke-black" />
<path d="M722.6,247.5l28.4,3.9L737.1,226.3Z" class="fill-black" />
<path d="M2289.1,365.4c14.7,-0.2,29.3,-0.3,44,-0.4l3,-0.1" class="stroke-black" />
<path d="M2333.2,377.8l25.5,-13.1L2333,352.1Z" class="fill-black" />
<path d="M1757.2,274.7c52.6,0,105.2,0,157.8,0l3.1,0" class="stroke-black" />
<path d="M1915,287.5l25.7,-12.8L1915,261.9Z" class="fill-black" />

</svg>
