<svg class="{{ include.svgclass }}" x="0" y="0" width="540" height="150" viewBox="0 0 540 260" version="1.1" xmlns="http://www.w3.org/2000/svg" xmlns:xlink="http://www.w3.org/1999/xlink">
<defs>
<clipPath id="c0_1"><path d="M128.5,61.5l0,-59l119,0l0,59Z" /></clipPath>
<clipPath id="c1_1"><path d="M3.5,226.5l0,-178l178,0l0,178Z" /></clipPath>
<clipPath id="c2_1"><path d="M128.5,252.5l0,-36l110,0l0,36Z" /></clipPath>
</defs>

<path d="M299.4,39.1c16.3,16.3,16.3,42.7,0,59c-16.2,16.3,-42.7,16.3,-59,0c-16.2,-16.3,-16.2,-42.7,0,-59c16.3,-16.3,42.8,-16.3,59,0Z" class="cfg-node" />
<text x="255" y="83" dx="0">A</text>

<path d="M299.4,177c16.3,16.3,16.3,42.7,0,59c-16.2,16.3,-42.7,16.3,-59,0c-16.2,-16.3,-16.2,-42.7,0,-59c16.3,-16.3,42.8,-16.3,59,0Z" class="cfg-node" />
<text x="255" y="222" dx="0">B</text>

<path d="M433.8,39.1c16.2,16.3,16.2,42.7,0,59c-16.3,16.3,-42.8,16.3,-59,0c-16.3,-16.3,-16.3,-42.7,0,-59c16.2,-16.3,42.7,-16.3,59,0Z" class="cfg-node" />
<text x="389" y="83" dx="0">C</text>

<path d="M433.8,177c16.2,16.3,16.2,42.7,0,59c-16.3,16.3,-42.8,16.3,-59,0c-16.3,-16.3,-16.3,-42.7,0,-59c16.2,-16.3,42.7,-16.3,59,0Z" class="cfg-node" />
<text x="389" y="222" dx="0">D</text>

<path d="M314,68.6c8.8,0,17.6,0,26.3,0l2.4,0" class="stroke-black" />
<path d="M340.3,78.5l19.9,-9.9l-19.9,-10Z" class="g4_1" />
<path d="M448.3,68.4c21.5,0,42.9,-0.1,64.3,-0.1l2.3,0" class="stroke-black" />
<path d="M512.6,78.2l19.8,-10L512.6,58.4Z" class="g4_1" />
<path d="M448.3,206.5c23.5,0,47,0,70.4,0l2.4,0" class="stroke-black" />
<path d="M518.7,216.4l19.9,-9.9l-19.9,-9.9Z" class="g4_1" />
<path d="M342.7,206.5l-2.4,0c-8.7,0,-17.5,0,-26.3,0" class="stroke-black" />
<path d="M340.3,216.4l19.9,-9.9l-19.9,-9.9Z" class="g4_1" />
<path d="M173.8,106c12.2,-4.7,24.4,-9.5,36.6,-14.2l2.2,-0.9" class="stroke-black" />
<path d="M214,101L228.9,84.6L206.8,82.5Z" class="g4_1" />
<path d="M173.8,169.1c12.2,4.7,24.4,9.5,36.6,14.2l2.2,0.9" class="stroke-black" />
<path d="M206.8,192.5l22.1,-2L214,174Z" class="g4_1" />
<g clip-path="url(#c0_1)">
<path d="M243.2,33.6C206.5,-4.9,171.8,-1.9,139.2,42.5l-1.3,2" class="stroke-black translucid" />
</g>
<path d="M130.9,37.1l-0.8,19.2L147.5,48m-8.3,-5.5l-9.1,13.8" class="translucid" />
<g clip-path="url(#c1_1)">
<path d="M152.6,77.8c33,33,33,86.5,0,119.5c-33,33,-86.5,33,-119.5,0c-33,-33,-33,-86.5,0,-119.5c33,-33,86.5,-33,119.5,0Z" class="cfg-node translucid" />
</g>
<text x="33" y="150" dx="0,0,0,0,0,0" class="translucid">(loop)</text>

<g clip-path="url(#c2_1)">
<path d="M235.5,234c-33.9,20.7,-64,19,-90.2,-5.1l-1.6,-1.8" class="stroke-black translucid" />
</g>
<path d="M152.6,222.2l-18.5,-5.5l3.9,18.9m7.3,-6.7L134.1,216.7" class="translucid" />

</svg>
