<svg viewBox="0 0 855 458" version="1.1" xmlns="http://www.w3.org/2000/svg" xmlns:xlink="http://www.w3.org/1999/xlink">
<defs>

<style type="text/css"><![CDATA[


.stroke-black{
fill: none;
stroke: #000000;
stroke-width: 7;
stroke-linecap: butt;
stroke-linejoin: miter;
stroke-miterlimit: 4;
}

]]></style>

</defs>
<path d="M141.3,140.9c14.9,14.9,14.9,39.1,0,54c-14.9,15,-39.1,15,-54,0c-14.9,-14.9,-14.9,-39.1,0,-54c14.9,-14.9,39.1,-14.9,54,0Z" class="cfg-node" />
<text x="99" y="184" dx="0">A</text>

<path d="M267.7,26.2c14.9,15,14.9,39.1,0,54.1c-14.9,14.9,-39.1,14.9,-54,0c-14.9,-15,-14.9,-39.1,0,-54.1c14.9,-14.9,39.1,-14.9,54,0Z" class="cfg-node" />
<text x="224" y="70" dx="0">B</text>

<path d="M267.7,255.6c14.9,14.9,14.9,39.1,0,54c-14.9,14.9,-39.1,14.9,-54,0c-14.9,-14.9,-14.9,-39.1,0,-54c14.9,-14.9,39.1,-14.9,54,0Z" class="cfg-node" />
<text x="224" y="299" dx="0">C</text>

<path d="M394.1,140.9c14.9,14.9,14.9,39.1,0,54c-15,15,-39.1,15,-54.1,0c-14.9,-14.9,-14.9,-39.1,0,-54c15,-14.9,39.1,-14.9,54.1,0Z" class="cfg-node" />
<text x="351" y="184" dx="0">D</text>

<path d="M144.9,140.2c15.4,-14,30.8,-28,46.2,-42l2.3,-2" class="stroke-black" />
<path d="M199.8,107.7L210.1,81l-27.6,7.7Z" class="fill-black" />
<path d="M271.2,81c15.5,14,30.9,28,46.3,42l2.3,2" class="stroke-black" />
<path d="M308.9,132.5l27.6,7.7L326.1,113.5Z" class="fill-black" />
<path d="M144.9,195.7c15.4,14,30.8,27.9,46.2,41.9l2.3,2.1" class="stroke-black" />
<path d="M182.5,247.1l27.6,7.8L199.8,228.1Z" class="fill-black" />
<path d="M271.2,254.9c15.5,-14,30.9,-28,46.3,-42l2.3,-2" class="stroke-black" />
<path d="M326.1,222.4l10.4,-26.7l-27.6,7.7Z" class="fill-black" />
<path d="M10.3,167.2c12.4,0.1,24.7,0.2,37.1,0.2l3.1,0.1" class="stroke-black" />
<path d="M47.3,180.3L73.1,167.6l-25.6,-13Z" class="fill-black" />
<path d="M520.4,26.2c14.9,15,14.9,39.1,0,54.1c-14.9,14.9,-39.1,14.9,-54,0c-14.9,-15,-14.9,-39.1,0,-54.1c14.9,-14.9,39.1,-14.9,54,0Z" class="cfg-node" />
<text x="479" y="70" dx="0">E</text>

<path d="M520.4,255.6c14.9,14.9,14.9,39.1,0,54c-14.9,14.9,-39.1,14.9,-54,0c-14.9,-14.9,-14.9,-39.1,0,-54c14.9,-14.9,39.1,-14.9,54,0Z" class="cfg-node" />
<text x="479" y="299" dx="0">F</text>

<path d="M397.6,140.2c15.4,-14,30.8,-28,46.3,-42l2.2,-2" class="stroke-black" />
<path d="M452.5,107.7L462.9,81l-27.7,7.7Z" class="fill-black" />
<path d="M397.6,195.7c15.4,14,30.8,27.9,46.3,41.9l2.2,2.1" class="stroke-black" />
<path d="M435.2,247.1l27.7,7.8L452.5,228.1Z" class="fill-black" />
<path d="M646.8,255.6c14.9,14.9,14.9,39.1,0,54c-14.9,14.9,-39.1,14.9,-54,0c-15,-14.9,-15,-39.1,0,-54c14.9,-14.9,39.1,-14.9,54,0Z" class="cfg-node" />
<text x="605" y="299" dx="0">H</text>

<path d="M534.7,282.6c6,0,12.1,0,18.2,0l3,0" class="stroke-black" />
<path d="M552.9,295.5l25.6,-12.9L552.9,269.8Z" class="fill-black" />
<path d="M646.8,140.9c14.9,14.9,14.9,39.1,0,54c-14.9,15,-39.1,15,-54,0c-15,-14.9,-15,-39.1,0,-54c14.9,-14.9,39.1,-14.9,54,0Z" class="cfg-node" />
<text x="603" y="183" dx="0">G</text>

<path d="M524,81c15.4,14,30.8,28,46.2,42l2.3,2" class="stroke-black" />
<path d="M561.6,132.5l27.6,7.7L578.8,113.5Z" class="fill-black" />
<path d="M576.2,167.9c-46.6,0,-93.3,0,-139.9,0l-3,0" class="stroke-black" />
<path d="M436.3,155.1l-25.6,12.8l25.6,12.9Z" class="fill-black" />
<path d="M646.8,378.1c14.9,14.9,14.9,39.1,0,54c-14.9,14.9,-39.1,14.9,-54,0c-15,-14.9,-15,-39.1,0,-54c14.9,-14.9,39.1,-14.9,54,0Z" class="cfg-node" />
<text x="614" y="420" dx="0">I</text>

<path d="M773.1,140.9c15,14.9,15,39.1,0,54c-14.9,15,-39.1,15,-54,0c-14.9,-14.9,-14.9,-39.1,0,-54c14.9,-14.9,39.1,-14.9,54,0Z" class="cfg-node" />
<text x="734" y="183" dx="0">J</text>

<path d="M531,70.3c51.4,23.3,102.8,46.7,154.2,70l2.8,1.2" class="stroke-black" />
<path d="M679.9,152l28.7,-1.1L690.5,128.6Z" class="fill-black" />
<path d="M650.3,254.9c15.4,-14,30.9,-28,46.3,-42l2.2,-2" class="stroke-black" />
<path d="M705.2,222.4l10.4,-26.7L688,203.4Z" class="fill-black" />
<path d="M619.8,323.9c0,4.7,0,9.5,0,14.3l0,3" class="stroke-black" />
<path d="M606.9,338.2l12.9,25.6l12.8,-25.6Z" class="fill-black" />
<path d="M578.5,403.4C466.4,393.3,398.7,336.9,375.6,234.2l-0.6,-3" class="stroke-black" />
<path d="M388.2,231.9L370.9,209L363,236.6Z" class="fill-black" />
<path d="M787.4,167.7c10.8,-0.1,21.7,-0.2,32.5,-0.2l3.1,-0.1" class="stroke-black" />
<path d="M820,180.3l25.6,-13L819.8,154.6Z" class="fill-black" />

</svg>
